HIERARCHY
ROOT Hips
{
	OFFSET 0.00000 0.00000 0.00000
	CHANNELS 6 Xposition Yposition Zposition Zrotation Yrotation Xrotation 
	JOINT LHipJoint
	{
		OFFSET 0 0 0
		CHANNELS 3 Zrotation Yrotation Xrotation
		JOINT LeftHip
		{
			OFFSET 1.33213 -1.58186 0.78596
			CHANNELS 3 Zrotation Yrotation Xrotation
			JOINT LeftKnee
			{
				OFFSET 2.29717 -6.31144 0.00000
				CHANNELS 3 Zrotation Yrotation Xrotation
				JOINT LeftAnkle
				{
					OFFSET 2.38430 -6.55082 0.00000
					CHANNELS 3 Zrotation Yrotation Xrotation
					JOINT LeftToe
					{
						OFFSET 0.11863 -0.32594 1.77568
						CHANNELS 3 Zrotation Yrotation Xrotation
						End Site
						{
							OFFSET 0.00000 -0.00000 0.91633
						}
					}
				}
			}
		}
	}
	JOINT RHipJoint
	{
		OFFSET 0 0 0
		CHANNELS 3 Zrotation Yrotation Xrotation
		JOINT RightHip
		{
			OFFSET -1.41575 -1.58186 0.78596
			CHANNELS 3 Zrotation Yrotation Xrotation
			JOINT RightKnee
			{
				OFFSET -2.42012 -6.64922 0.00000
				CHANNELS 3 Zrotation Yrotation Xrotation
				JOINT RightAnkle
				{
					OFFSET -2.47254 -6.79327 0.00000
					CHANNELS 3 Zrotation Yrotation Xrotation
					JOINT RightToe
					{
						OFFSET -0.15219 -0.41813 1.93430
						CHANNELS 3 Zrotation Yrotation Xrotation
						End Site
						{
							OFFSET -0.00000 -0.00000 0.99984
						}
					}
				}
			}
		}
	}
	JOINT lowerback
	{
		OFFSET 0 0 0
		CHANNELS 3 Zrotation Yrotation Xrotation
		JOINT Chest
		{
			OFFSET -0.04717 2.09389 -0.14516
			CHANNELS 3 Zrotation Yrotation Xrotation
			JOINT Chest2
			{
				OFFSET 0.02825 2.09433 -0.11325
				CHANNELS 3 Zrotation Yrotation Xrotation
				JOINT lowerneck
				{
					OFFSET 0 0 0
					CHANNELS 3 Zrotation Yrotation Xrotation
					JOINT Neck
					{
						OFFSET -0.01210 1.39029 0.12448
						CHANNELS 3 Zrotation Yrotation Xrotation
						JOINT Head
						{
							OFFSET 0.09492 1.38365 0.14559
							CHANNELS 3 Zrotation Yrotation Xrotation
							End Site
							{
								OFFSET 0.03402 1.40343 0.03708
							}
						}
					}
				}
				JOINT LeftCollar
				{
					OFFSET 0 0 0
					CHANNELS 3 Zrotation Yrotation Xrotation
					JOINT LeftShoulder
					{
						OFFSET 2.83352 1.10671 -0.20481
CHANNELS 3 Zrotation Xrotation Yrotation
						JOINT LeftElbow
						{
OFFSET 0 -4.771950 -0.000000
CHANNELS 3 Zrotation Xrotation Yrotation
							JOINT LeftWrist
							{
OFFSET 0 -2.984440 0.000000
CHANNELS 3 Zrotation Xrotation Yrotation
								JOINT lhand
								{
									OFFSET 0 0 0
CHANNELS 3 Zrotation Xrotation Yrotation
									JOINT LFingers
									{
OFFSET 0 -0.992280 0.000000
CHANNELS 3 Zrotation Xrotation Yrotation
										End Site
										{
OFFSET 0 -0.800010 0.000000
										}
									}
								}
								JOINT LThumb
								{
OFFSET 0 0.000000 0.000000
CHANNELS 3 Zrotation Xrotation Yrotation
									End Site
									{
OFFSET 0 -0.812220 0.812220
									}
								}
							}
						}
					}
				}
				JOINT RightCollar
				{
					OFFSET 0 0 0
					CHANNELS 3 Zrotation Yrotation Xrotation
					JOINT RightShoulder
					{
						OFFSET -3.23760 1.11106 0.06723
CHANNELS 3 Zrotation Xrotation Yrotation
						JOINT RightElbow
						{
OFFSET 0 -4.620520 0.000000
CHANNELS 3 Zrotation Xrotation Yrotation
							JOINT RightWrist
							{
OFFSET 0 -2.953320 0.000000
CHANNELS 3 Zrotation Xrotation Yrotation
								JOINT rhand
								{
									OFFSET 0 0 0
CHANNELS 3 Zrotation Xrotation Yrotation
									JOINT RFingers
									{
OFFSET 0 -0.990960 0.000000
CHANNELS 3 Zrotation Xrotation Yrotation
										End Site
										{
OFFSET 0 -0.798930 0.000000
										}
									}
								}
								JOINT RThumb
								{
OFFSET 0 0.000000 0.000000
CHANNELS 3 Zrotation Xrotation Yrotation
									End Site
									{
OFFSET 0 -0.811130 0.811130
									}
								}
							}
						}
					}
				}
			}
		}
	}
}
MOTION
Frames: 4
Frame Time: 0.008333333333333333
0.071400 16.123700 33.910200 -178.926000 -14.047400 -172.132000 0.000000 0.000000 0.000000 -20.212200 -7.745800 3.760900 0.155700 2.542700 7.008100 0.071700 -6.180700 -6.049000 1.811800 8.462400 24.127700 0.000000 0.000000 0.000000 15.998100 4.757900 -29.715900 -1.588000 -7.949200 22.559800 -0.180500 6.978400 -8.401300 -0.387800 -3.998700 11.073100 -4.823700 -2.202900 -10.708800 1.804500 -2.439700 1.580700 4.214700 -1.458000 7.998700 -5.125100 -3.415600 2.554500 9.907500 -4.502800 -14.792300 4.139800 -2.848100 -4.461000 0.000000 -0.000000 0.000000 -0.942100 2.310000 -6.336100 8.918000 -15.029600 1.178800 6.721700 40.977800 -10.703200 0.000000 0.000000 0.000000 -7.125000 0.000000 0.000000 -17.748000 40.108400 -2.220800 0.000000 -0.000000 0.000000 1.817300 2.190200 -8.543400 -10.767500 -17.931000 -1.703600 -2.401100 39.729400 7.744200 0.000000 0.000000 0.000000 7.125000 0.000000 -0.000000 20.502900 36.979200 4.267500
0.071507 16.123950 33.912486 -178.991022 -14.023964 -172.118424 0.000000 0.000000 0.000000 -20.295764 -7.713789 3.799270 0.151877 2.511011 6.920249 0.071664 -6.165909 -6.041497 1.779182 8.389304 23.903411 0.000000 0.000000 0.000000 15.939116 4.698059 -29.761344 -1.590608 -7.955416 22.578735 -0.164316 6.966539 -8.121992 -0.365292 -3.878839 10.736523 -4.805623 -2.151490 -10.683863 1.713184 -2.365961 1.609745 4.120347 -1.418916 8.002237 -5.030497 -3.451183 2.365330 9.950121 -4.544814 -14.696304 4.130440 -2.873287 -4.397586 0.000000 0.000000 0.000000 -0.794015 2.257625 -6.400979 8.865518 -14.945751 1.165295 6.910084 41.221453 -10.655005 0.000000 0.000000 0.000000 -7.125000 0.000000 0.000000 -17.575907 40.078033 -2.211118 0.000000 0.000000 0.000000 1.973817 2.133895 -8.601062 -10.800440 -17.981695 -1.713818 -2.417713 39.663628 7.719835 0.000000 0.000000 0.000000 7.125000 0.000000 0.000000 20.483001 36.957478 4.274431
0.071614 16.124200 33.914773 -179.056043 -14.000527 -172.104848 0.000000 0.000000 0.000000 -20.379327 -7.681779 3.837640 0.148055 2.479322 6.832398 0.071629 -6.151119 -6.033995 1.746564 8.316208 23.679122 0.000000 0.000000 0.000000 15.880132 4.638217 -29.806787 -1.593216 -7.961633 22.597670 -0.148132 6.954678 -7.842685 -0.342785 -3.758977 10.399947 -4.787545 -2.100080 -10.658926 1.621868 -2.292222 1.638791 4.025994 -1.379831 8.005774 -4.935894 -3.486767 2.176159 9.992743 -4.586828 -14.600307 4.121079 -2.898474 -4.334172 0.000000 0.000000 0.000000 -0.645930 2.205251 -6.465858 8.813036 -14.861901 1.151791 7.098469 41.465106 -10.606811 0.000000 0.000000 0.000000 -7.125000 0.000000 0.000000 -17.403814 40.047665 -2.201436 0.000000 0.000000 0.000000 2.130333 2.077591 -8.658724 -10.833379 -18.032391 -1.724035 -2.434325 39.597856 7.695469 0.000000 0.000000 0.000000 7.125000 0.000000 0.000000 20.463101 36.935757 4.281362
0.071973 16.124393 33.917203 -179.113384 -13.975842 -172.093139 0.000000 0.000000 0.000000 -20.452324 -7.652919 3.862457 0.145215 2.455780 6.767132 0.071722 -6.136249 -6.029091 1.720421 8.257628 23.499376 0.000000 0.000000 0.000000 15.825922 4.596315 -29.845160 -1.595350 -7.966729 22.613180 -0.132687 6.925653 -7.564835 -0.321878 -3.646323 10.083757 -4.777529 -2.078835 -10.632762 1.560379 -2.260442 1.664915 3.960571 -1.362519 8.011981 -4.908074 -3.496327 1.998016 10.034790 -4.596567 -14.508826 4.122193 -2.904128 -4.274886 0.000000 0.000000 0.000000 -0.563106 2.165482 -6.446596 8.772292 -14.796802 1.141302 7.268533 41.678780 -10.566469 0.000000 0.000000 0.000000 -7.125000 0.000000 0.000000 -17.249323 40.023271 -2.191446 0.000000 0.000000 0.000000 2.224094 2.018480 -8.633330 -10.859126 -18.072010 -1.732021 -2.453917 39.538365 7.673832 0.000000 0.000000 0.000000 7.125000 0.000000 0.000000 20.441529 36.916792 4.286433
